<svg width="22" height="17" viewBox="0 0 22 17" fill="none" xmlns="http://www.w3.org/2000/svg">
<rect y="0.5" width="22" height="16" rx="2" fill="#03BCDB"/>
<path fill-rule="evenodd" clip-rule="evenodd" d="M2.09521 3.1613C2.09521 2.8701 2.33826 2.6333 2.61902 2.6333C2.90817 2.6333 3.14283 2.8637 3.14283 3.1613V5.3053C3.14283 5.5965 2.89979 5.8333 2.61902 5.8333C2.32988 5.8333 2.09521 5.6029 2.09521 5.3053V3.1613ZM3.14283 5.29463C3.14283 5.00343 3.38588 4.76663 3.66664 4.76663C3.95579 4.76663 4.19045 4.99703 4.19045 5.29463V7.43863C4.19045 7.72983 3.94741 7.96663 3.66664 7.96663C3.3775 7.96663 3.14283 7.73623 3.14283 7.43863V5.29463ZM3.14283 9.5613C3.14283 9.2701 3.38588 9.0333 3.66664 9.0333C3.95579 9.0333 4.19045 9.2637 4.19045 9.5613V11.7053C4.19045 11.9965 3.94741 12.2333 3.66664 12.2333C3.3775 12.2333 3.14283 12.0029 3.14283 11.7053V9.5613ZM2.09521 11.6946C2.09521 11.4034 2.33826 11.1666 2.61902 11.1666C2.90817 11.1666 3.14283 11.397 3.14283 11.6946V13.8386C3.14283 14.1298 2.89979 14.3666 2.61902 14.3666C2.32988 14.3666 2.09521 14.1362 2.09521 13.8386V11.6946ZM2.09521 7.4333C2.09521 7.1389 2.33826 6.89997 2.61902 6.89997C2.90817 6.89997 3.14283 7.14743 3.14283 7.4333C3.14283 7.7277 2.89979 7.96663 2.61902 7.96663C2.32988 7.96663 2.09521 7.71917 2.09521 7.4333ZM3.14283 3.16663C3.14283 2.87223 3.38588 2.6333 3.66664 2.6333C3.95579 2.6333 4.19045 2.88077 4.19045 3.16663C4.19045 3.46103 3.94741 3.69997 3.66664 3.69997C3.3775 3.69997 3.14283 3.4525 3.14283 3.16663ZM2.09521 8.49997C2.09521 8.20557 2.33826 7.96663 2.61902 7.96663C2.90817 7.96663 3.14283 8.2141 3.14283 8.49997C3.14283 8.79437 2.89979 9.0333 2.61902 9.0333C2.32988 9.0333 2.09521 8.78583 2.09521 8.49997ZM3.14283 13.8333C3.14283 13.5389 3.38588 13.3 3.66664 13.3C3.95579 13.3 4.19045 13.5474 4.19045 13.8333C4.19045 14.1277 3.94741 14.3666 3.66664 14.3666C3.3775 14.3666 3.14283 14.1192 3.14283 13.8333ZM2.09521 9.56663C2.09521 9.27223 2.33826 9.0333 2.61902 9.0333C2.90817 9.0333 3.14283 9.28077 3.14283 9.56663C3.14283 9.86103 2.89979 10.1 2.61902 10.1C2.32988 10.1 2.09521 9.8525 2.09521 9.56663Z" fill="#FFDA2C"/>
<path d="M12.0476 10.0999C13.4941 10.0999 14.6667 8.90603 14.6667 7.43327C14.6667 5.96051 13.4941 4.7666 12.0476 4.7666C10.6012 4.7666 9.42859 5.96051 9.42859 7.43327C9.42859 8.90603 10.6012 10.0999 12.0476 10.0999Z" fill="#FFDA2C"/>
<path fill-rule="evenodd" clip-rule="evenodd" d="M8.38098 7.96655L9.4286 10.0999L12.0476 11.1666L14.6667 10.0999L15.7143 7.96655V11.1666L12.0476 12.2332L8.38098 11.1666V7.96655Z" fill="#FFDA2C"/>
</svg>
