<svg width="24" height="25" viewBox="0 0 24 25" fill="none" xmlns="http://www.w3.org/2000/svg">
<path fill-rule="evenodd" clip-rule="evenodd" d="M2.83325 22.5003C3.05425 22.5003 3.26618 22.4124 3.42242 22.2561L8.93826 16.7403L9.97826 17.817C10.7621 18.6453 11.8425 19.129 12.9824 19.162C13.3624 19.1631 13.7398 19.0991 14.0983 18.9728C14.2782 18.9108 14.4511 18.8323 14.6149 18.7387L13.3726 17.4432C12.9993 17.5114 12.6142 17.4876 12.2507 17.3728C11.8303 17.2401 11.4562 16.991 11.1716 16.6545L7.50492 12.8628C7.27628 12.6348 7.1178 12.346 7.04823 12.0307C6.97867 11.7153 7.00095 11.3867 7.11242 11.0836C7.12601 11.0426 7.14128 11.0022 7.15817 10.9626L5.96007 9.71315C5.78328 9.96238 5.64198 10.2368 5.54159 10.5286C5.32372 11.1251 5.28077 11.7714 5.41777 12.3914C5.55477 13.0115 5.86603 13.5795 6.31492 14.0286L7.77992 15.5453L2.24409 21.0778C2.12758 21.1943 2.04824 21.3428 2.0161 21.5044C1.98396 21.6661 2.00046 21.8336 2.06352 21.9858C2.12658 22.1381 2.23336 22.2682 2.37037 22.3598C2.50738 22.4514 2.66846 22.5003 2.83325 22.5003ZM15.9424 13.8486C16.1315 14.58 16.202 15.3363 16.1519 16.0887L14.3128 14.1708L14.1424 13.3478C14.0463 12.9343 14.057 12.5031 14.1737 12.0948C14.2903 11.6866 14.509 11.3148 14.8091 11.0145L16.1308 9.69197C16.5022 9.32876 17.0004 9.12433 17.5199 9.12197C17.7662 9.1224 18.0099 9.17218 18.2366 9.26836C18.4633 9.36454 18.6685 9.50518 18.8399 9.68197C18.9809 9.83798 19.1719 9.93997 19.3799 9.97039C19.588 10.0008 19.8002 9.95775 19.9799 9.84864C20.0799 9.77889 20.1633 9.68806 20.2243 9.58256C20.2854 9.47707 20.3225 9.35947 20.3332 9.23805C20.3438 9.11664 20.3277 8.99436 20.286 8.87985C20.2442 8.76534 20.1779 8.66138 20.0916 8.5753L15.9883 4.47197C15.8469 4.3196 15.6573 4.22065 15.4514 4.1918C15.2456 4.16296 15.0361 4.20599 14.8583 4.31364C14.7583 4.38338 14.6749 4.47421 14.6138 4.57971C14.5528 4.6852 14.5157 4.8028 14.505 4.92422C14.4944 5.04563 14.5105 5.16791 14.5522 5.28242C14.594 5.39693 14.6603 5.50089 14.7466 5.58697L14.8099 5.6503C15.1697 6.01114 15.3717 6.49991 15.3717 7.00947C15.3717 7.51902 15.1697 8.00779 14.8099 8.36864L13.4766 9.70197C13.1694 10.0078 12.7883 10.2288 12.3703 10.3434C11.9523 10.4581 11.5118 10.4624 11.0916 10.3561L10.5133 10.2086L8.72142 8.33994C9.4283 8.31208 10.1363 8.38861 10.8224 8.5678L11.5033 8.74197C11.6433 8.77775 11.7901 8.77652 11.9295 8.73839C12.0689 8.70025 12.196 8.62654 12.2983 8.52447L13.6316 7.19114C13.6793 7.14306 13.7061 7.07805 13.7061 7.0103C13.7061 6.94255 13.6793 6.87755 13.6316 6.82947L13.5683 6.76614C13.3113 6.50925 13.1134 6.19942 12.9883 5.85824C12.8633 5.51706 12.8141 5.15272 12.8443 4.79061C12.8744 4.42849 12.9831 4.07729 13.1629 3.76148C13.3426 3.44567 13.589 3.17283 13.8849 2.96197C14.3842 2.62387 14.9864 2.47201 15.5863 2.53294C16.1861 2.59387 16.7455 2.86372 17.1666 3.2953L21.2674 7.3978C21.5245 7.65463 21.7224 7.96441 21.8475 8.30556C21.9726 8.6467 22.0219 9.01102 21.9918 9.37314C21.9617 9.73525 21.8531 10.0865 21.6735 10.4023C21.4938 10.7182 21.2475 10.991 20.9516 11.202C20.4474 11.5455 19.8372 11.6979 19.2306 11.6319C18.6241 11.5659 18.061 11.2858 17.6424 10.842C17.6266 10.8209 17.6051 10.8046 17.5806 10.7951C17.556 10.7855 17.5292 10.783 17.5033 10.7878C17.4293 10.7889 17.3588 10.8188 17.3066 10.8711L15.9841 12.1945C15.8831 12.2956 15.8098 12.421 15.7713 12.5586C15.7328 12.6962 15.7303 12.8414 15.7641 12.9803L15.9424 13.8486Z" fill="#A2ADC4"/>
<path d="M4 5.49995L18.7936 20.9272" stroke="#A2ADC4" stroke-width="1.5" stroke-linecap="round" stroke-linejoin="round"/>
</svg>
