<svg width="24" height="24" viewBox="0 0 24 24" fill="none" xmlns="http://www.w3.org/2000/svg">
<g clip-path="url(#clip0_1_269)">
<path d="M21.125 9.99983C20.9687 9.8436 20.7568 9.75584 20.5359 9.75584C20.3149 9.75584 20.103 9.8436 19.9467 9.99983L10.87 19.1157C10.4831 19.5026 10.0238 19.8096 9.51824 20.019C9.0127 20.2285 8.47085 20.3363 7.92365 20.3363C6.81851 20.3364 5.75861 19.8975 4.9771 19.1161C4.1956 18.3347 3.75651 17.2748 3.75643 16.1697C3.75635 15.0646 4.19529 14.0047 4.97669 13.2232L13.7675 4.3965C14.2376 3.93391 14.8714 3.6758 15.5309 3.67841C16.1904 3.68102 16.8222 3.94412 17.2886 4.41042C17.755 4.87671 18.0183 5.50841 18.021 6.16792C18.0238 6.82743 17.7658 7.46131 17.3034 7.9315L8.51252 16.7582C8.35398 16.91 8.14291 16.9948 7.92335 16.9948C7.7038 16.9948 7.49273 16.91 7.33419 16.7582C7.17796 16.6019 7.0902 16.39 7.0902 16.169C7.0902 15.948 7.17796 15.7361 7.33419 15.5798L15.1609 7.71733C15.3127 7.56016 15.3966 7.34966 15.3947 7.13116C15.3928 6.91266 15.3052 6.70365 15.1507 6.54915C14.9962 6.39464 14.7872 6.307 14.5687 6.3051C14.3502 6.3032 14.1397 6.3872 13.9825 6.539L6.15585 14.4015C5.92366 14.6336 5.73947 14.9093 5.61381 15.2126C5.48815 15.5159 5.42347 15.8411 5.42347 16.1694C5.42347 16.4978 5.48815 16.8229 5.61381 17.1262C5.73947 17.4296 5.92366 17.7052 6.15585 17.9373C6.6322 18.3919 7.26534 18.6455 7.92377 18.6455C8.5822 18.6455 9.21534 18.3919 9.69169 17.9373L18.4817 9.10983C19.2467 8.32508 19.6717 7.27054 19.6647 6.17464C19.6577 5.07874 19.2192 4.02973 18.4442 3.25485C17.6692 2.47997 16.6201 2.04162 15.5242 2.03475C14.4283 2.02788 13.3738 2.45305 12.5892 3.21816L3.79835 12.0448C2.70433 13.1388 2.08972 14.6227 2.08972 16.1698C2.08972 17.717 2.70433 19.2008 3.79835 20.2948C4.89237 21.3888 6.37618 22.0035 7.92335 22.0035C9.47053 22.0035 10.9543 21.3888 12.0484 20.2948L21.125 11.1815C21.2029 11.1041 21.2647 11.012 21.3068 10.9106C21.349 10.8092 21.3707 10.7005 21.3707 10.5907C21.3707 10.4809 21.349 10.3721 21.3068 10.2707C21.2647 10.1693 21.2029 10.0773 21.125 9.99983Z" fill="#A2ADC4"/>
</g>
<defs>
<clipPath id="clip0_1_269">
<rect width="20" height="20" fill="white" transform="translate(2 2)"/>
</clipPath>
</defs>
</svg>
