<svg width="48" height="48" viewBox="0 0 48 48" fill="none" xmlns="http://www.w3.org/2000/svg">
<rect width="48" height="48" rx="4" fill="#A2ADC4"/>
<path d="M26.2199 33.6303C25.0399 33.6303 23.3699 32.8003 22.0499 28.8303L21.3299 26.6703L19.1699 25.9503C15.2099 24.6303 14.3799 22.9603 14.3799 21.7803C14.3799 20.6103 15.2099 18.9303 19.1699 17.6003L27.6599 14.7703C29.7799 14.0603 31.5499 14.2703 32.6399 15.3503C33.7299 16.4303 33.9399 18.2103 33.2299 20.3303L30.3999 28.8203C29.0699 32.8003 27.3999 33.6303 26.2199 33.6303ZM19.6399 19.0303C16.8599 19.9603 15.8699 21.0603 15.8699 21.7803C15.8699 22.5003 16.8599 23.6003 19.6399 24.5203L22.1599 25.3603C22.3799 25.4303 22.5599 25.6103 22.6299 25.8303L23.4699 28.3503C24.3899 31.1303 25.4999 32.1203 26.2199 32.1203C26.9399 32.1203 28.0399 31.1303 28.9699 28.3503L31.7999 19.8603C32.3099 18.3203 32.2199 17.0603 31.5699 16.4103C30.9199 15.7603 29.6599 15.6803 28.1299 16.1903L19.6399 19.0303Z" fill="white"/>
<path d="M22.11 26.4C21.92 26.4 21.73 26.33 21.58 26.18C21.29 25.89 21.29 25.41 21.58 25.12L25.16 21.53C25.45 21.24 25.93 21.24 26.22 21.53C26.51 21.82 26.51 22.3 26.22 22.59L22.64 26.18C22.5 26.33 22.3 26.4 22.11 26.4Z" fill="white"/>
</svg>
