<svg width="24" height="25" viewBox="0 0 24 25" fill="none" xmlns="http://www.w3.org/2000/svg">
<path fill-rule="evenodd" clip-rule="evenodd" d="M5.27 9.41016C5.27 8.94475 5.31725 8.49024 5.40722 8.05119L6.77 9.47234V12.3002C6.77 12.6955 6.68857 13.1515 6.57392 13.5645C6.4592 13.9778 6.2945 14.4082 6.09421 14.7442L6.09253 14.747L6.09252 14.747L4.94263 16.6568L4.94252 16.657C4.69367 17.0707 4.67989 17.456 4.78958 17.7522C4.8995 18.0491 5.16234 18.3343 5.61911 18.4893C8.98981 19.6152 12.5759 19.8277 16.0278 19.1268L17.2398 20.3907C13.2537 21.3809 9.06212 21.2211 5.14233 19.9115L5.13955 19.9106C4.29714 19.6254 3.66538 19.0359 3.38291 18.2731C3.10012 17.5094 3.19632 16.6497 3.65736 15.8835L3.65747 15.8833L4.80579 13.9761L4.80655 13.9748C4.91605 13.7907 5.036 13.4968 5.12857 13.1633C5.22142 12.8288 5.27 12.5148 5.27 12.3002V9.41016ZM7.08073 7.62916L5.95228 6.45237C6.15436 6.03914 6.39743 5.64952 6.67617 5.28882L7.72934 6.38711C7.46087 6.76713 7.24156 7.18425 7.08073 7.62916ZM18.1288 15.0649L17.9375 14.747L17.9302 14.735L17.9304 14.7349C17.7383 14.402 17.5773 13.9745 17.4642 13.5623C17.3514 13.1508 17.27 12.6953 17.27 12.3002V9.41016C17.27 6.52437 14.9058 4.16016 12.02 4.16016C10.7897 4.16016 9.65709 4.58513 8.7613 5.29605L7.71953 4.20965C8.88783 3.24209 10.3868 2.66016 12.02 2.66016C15.7342 2.66016 18.77 5.69594 18.77 9.41016V12.3002C18.77 12.515 18.8186 12.8295 18.9108 13.1655C19.0018 13.4975 19.1194 13.7925 19.2265 13.9799L20.3725 15.8833L20.3731 15.8843C20.7311 16.4809 20.8344 17.1489 20.7255 17.7727L18.1288 15.0649ZM18.9714 18.1108C18.8297 18.2797 18.641 18.4132 18.4146 18.4881L18.4123 18.4888C18.1781 18.5671 17.9429 18.6409 17.7067 18.7103L18.8656 19.9189L18.8865 19.9119C19.3346 19.7635 19.7146 19.5132 20.0131 19.1971L18.9714 18.1108Z" fill="#A2ADC4"/>
<path d="M13.87 3.69994C13.56 3.60994 13.24 3.53994 12.91 3.49994C11.95 3.37994 11.03 3.44994 10.17 3.69994C10.46 2.95994 11.18 2.43994 12.02 2.43994C12.86 2.43994 13.58 2.95994 13.87 3.69994Z" stroke="#A2ADC4" stroke-width="1.5" stroke-miterlimit="10" stroke-linecap="round" stroke-linejoin="round"/>
<path d="M15.02 19.5601C15.02 21.2101 13.67 22.5601 12.02 22.5601C11.2 22.5601 10.44 22.2201 9.9 21.6801C9.36 21.1401 9.02 20.3801 9.02 19.5601" stroke="#A2ADC4" stroke-width="1.5" stroke-miterlimit="10"/>
<path d="M5 4.49995L19.7936 19.9272" stroke="#A2ADC4" stroke-width="1.5" stroke-linecap="round" stroke-linejoin="round"/>
</svg>
