<svg width="24" height="24" viewBox="0 0 24 24" fill="none" xmlns="http://www.w3.org/2000/svg">
<path d="M17.9381 10.176L17.9381 10.176L17.9429 10.1721C18.5806 9.65396 18.6826 8.7088 18.1701 8.06698C17.6546 7.39834 16.6954 7.31184 16.0599 7.82564L12.9319 10.324L12.9305 10.3251C12.7075 10.5041 12.3701 10.6175 11.995 10.6175C11.6199 10.6175 11.2825 10.5041 11.0595 10.3251L11.0581 10.324L7.93016 7.82566C7.27271 7.29401 6.33511 7.43281 5.82791 8.05705L5.82339 8.06262L5.81898 8.06827C5.31974 8.7073 5.41699 9.65203 6.05706 10.1721L6.05704 10.1721L6.06194 10.176L9.18915 12.6738C9.99164 13.3268 11.015 13.63 12 13.63C12.9894 13.63 14.0002 13.3244 14.8088 12.6754C14.8091 12.6752 14.8093 12.675 14.8096 12.6748L17.9381 10.176ZM7 4.25H17C18.385 4.25 19.4246 4.59637 20.1147 5.2371C20.7946 5.86848 21.25 6.89295 21.25 8.5V15.5C21.25 17.107 20.7946 18.1315 20.1147 18.7629C19.4246 19.4036 18.385 19.75 17 19.75H7C5.61497 19.75 4.57535 19.4036 3.88534 18.7629C3.20538 18.1315 2.75 17.107 2.75 15.5V8.5C2.75 6.89295 3.20538 5.86848 3.88534 5.2371C4.57535 4.59637 5.61497 4.25 7 4.25Z" fill="white" stroke="white" stroke-width="1.5"/>
</svg>
