<svg width="20" height="18" viewBox="0 0 20 18" fill="none" xmlns="http://www.w3.org/2000/svg">
<path d="M15.9381 7.17602L15.9381 7.17604L15.9429 7.17209C16.5806 6.65396 16.6826 5.7088 16.1701 5.06698C15.6546 4.39834 14.6954 4.31184 14.0599 4.82564L10.9319 7.32398L10.9305 7.3251C10.7075 7.50408 10.3701 7.6175 9.995 7.6175C9.61986 7.6175 9.28245 7.50408 9.05946 7.3251L9.05806 7.32398L5.93016 4.82566C5.27271 4.29401 4.33511 4.43281 3.82791 5.05705L3.82339 5.06262L3.81898 5.06827C3.31974 5.7073 3.41699 6.65203 4.05706 7.17209L4.05704 7.17211L4.06194 7.17602L7.18915 9.67379C7.99164 10.3268 9.01495 10.63 10 10.63C10.9894 10.63 12.0002 10.3244 12.8088 9.67539C12.8091 9.67519 12.8093 9.67499 12.8096 9.67479L15.9381 7.17602ZM5 1.25H15C16.385 1.25 17.4246 1.59637 18.1147 2.2371C18.7946 2.86848 19.25 3.89295 19.25 5.5V12.5C19.25 14.107 18.7946 15.1315 18.1147 15.7629C17.4246 16.4036 16.385 16.75 15 16.75H5C3.61497 16.75 2.57535 16.4036 1.88534 15.7629C1.20538 15.1315 0.75 14.107 0.75 12.5V5.5C0.75 3.89295 1.20538 2.86848 1.88534 2.2371C2.57535 1.59637 3.61497 1.25 5 1.25Z" fill="#476CFA" stroke="#476CFA" stroke-width="1.5"/>
</svg>
