<svg width="20" height="20" viewBox="0 0 20 20" fill="none" xmlns="http://www.w3.org/2000/svg">
<path d="M0.833278 20.0003C1.05427 20.0003 1.2662 19.9124 1.42244 19.7561L6.93828 14.2403L7.97828 15.317C8.76214 16.1453 9.84249 16.629 10.9824 16.662C11.3625 16.6631 11.7399 16.5991 12.0983 16.4728C12.6521 16.2821 13.1386 15.9348 13.4988 15.473C13.859 15.0111 14.0774 14.4547 14.1274 13.8711C14.2179 13.026 14.1552 12.1715 13.9424 11.3486L13.7641 10.4803C13.7303 10.3414 13.7328 10.1962 13.7713 10.0586C13.8099 9.921 13.8831 9.7956 13.9841 9.69447L15.3066 8.37114C15.3588 8.31877 15.4294 8.28886 15.5033 8.2878C15.5292 8.28298 15.556 8.28549 15.5806 8.29506C15.6052 8.30463 15.6266 8.32088 15.6424 8.34197C16.061 8.78585 16.6241 9.06594 17.2307 9.13192C17.8372 9.1979 18.4474 9.04546 18.9516 8.70197C19.2475 8.49104 19.4938 8.21815 19.6735 7.90231C19.8531 7.58646 19.9618 7.23525 19.9918 6.87314C20.0219 6.51102 19.9727 6.1467 19.8476 5.80556C19.7225 5.46441 19.5245 5.15463 19.2674 4.8978L15.1666 0.795302C14.7455 0.363719 14.1862 0.0938724 13.5863 0.0329402C12.9864 -0.0279921 12.3842 0.123868 11.8849 0.461969C11.589 0.672829 11.3426 0.945667 11.1629 1.26148C10.9832 1.57729 10.8744 1.92849 10.8443 2.29061C10.8141 2.65272 10.8633 3.01706 10.9883 3.35824C11.1134 3.69942 11.3113 4.00925 11.5683 4.26614L11.6316 4.32947C11.6793 4.37755 11.7061 4.44255 11.7061 4.5103C11.7061 4.57805 11.6793 4.64306 11.6316 4.69114L10.2983 6.02447C10.196 6.12654 10.0689 6.20025 9.92955 6.23839C9.79017 6.27652 9.64328 6.27775 9.50328 6.24197L8.82244 6.0678C7.98499 5.84909 7.11493 5.78331 6.25411 5.87364C5.64358 5.93687 5.06385 6.17333 4.58326 6.55514C4.10267 6.93696 3.74125 7.44821 3.54161 8.02864C3.32375 8.6251 3.28079 9.27138 3.41779 9.89143C3.55479 10.5115 3.86605 11.0795 4.31494 11.5286L5.77994 13.0453L0.244111 18.5778C0.127603 18.6943 0.0482646 18.8428 0.016125 19.0044C-0.0160146 19.1661 0.000487826 19.3336 0.0635462 19.4858C0.126605 19.6381 0.233388 19.7682 0.370396 19.8598C0.507404 19.9514 0.668486 20.0003 0.833278 20.0003ZM5.11244 8.58364C5.20635 8.29973 5.38054 8.04914 5.61393 7.86219C5.84731 7.67525 6.12989 7.55996 6.42744 7.5303C6.6193 7.51033 6.81206 7.50032 7.00494 7.5003C7.47771 7.50033 7.94851 7.5611 8.40578 7.68114L9.09161 7.85614C9.51179 7.96244 9.95235 7.95806 10.3703 7.84341C10.7883 7.72877 11.1695 7.50777 11.4766 7.20197L12.8099 5.86864C13.1697 5.50779 13.3718 5.01902 13.3718 4.50947C13.3718 3.99991 13.1697 3.51114 12.8099 3.1503L12.7466 3.08697C12.6603 3.00089 12.594 2.89693 12.5522 2.78242C12.5105 2.66791 12.4944 2.54563 12.505 2.42422C12.5157 2.3028 12.5528 2.1852 12.6139 2.07971C12.6749 1.97421 12.7583 1.88338 12.8583 1.81364C13.0361 1.70599 13.2456 1.66296 13.4514 1.6918C13.6573 1.72065 13.8469 1.8196 13.9883 1.97197L18.0916 6.0753C18.1779 6.16138 18.2442 6.26534 18.286 6.37985C18.3277 6.49436 18.3438 6.61664 18.3332 6.73805C18.3225 6.85947 18.2854 6.97707 18.2244 7.08256C18.1633 7.18806 18.0799 7.27889 17.9799 7.34864C17.8002 7.45775 17.588 7.50081 17.38 7.47039C17.1719 7.43997 16.9809 7.33798 16.8399 7.18197C16.6685 7.00518 16.4633 6.86454 16.2366 6.76836C16.0099 6.67218 15.7662 6.6224 15.5199 6.62197C15.0004 6.62433 14.5022 6.82876 14.1308 7.19197L12.8091 8.51447C12.509 8.81479 12.2903 9.18659 12.1737 9.59482C12.057 10.0031 12.0463 10.4343 12.1424 10.8478L12.3249 11.7295C12.4931 12.3723 12.5442 13.0402 12.4758 13.7011C12.4559 13.9707 12.3572 14.2285 12.192 14.4424C12.0268 14.6563 11.8024 14.817 11.5466 14.9045C11.1203 15.0165 10.671 15.0056 10.2507 14.8728C9.83035 14.7401 9.45623 14.491 9.17161 14.1545L5.50494 10.3628C5.27631 10.1348 5.11782 9.846 5.04826 9.53067C4.97869 9.21535 5.00097 8.88669 5.11244 8.58364Z" fill="#A2ADC4"/>
</svg>
